<svg width="738" height="942" viewBox="0 0 738 942" fill="none" xmlns="http://www.w3.org/2000/svg">
<g opacity="0.6">
<path opacity="0.2" d="M0 471.05C0 210.9 213.39 0 476.57 0C739.8 0 953.22 210.9 953.22 471.05C953.22 731.17 739.8 942 476.57 942C213.39 942 0 731.17 0 471.05ZM18.64 471.05C18.64 720.98 223.63 923.65 476.57 923.65C729.54 923.65 934.6 720.98 934.6 471.05C934.6 221.12 729.54 18.35 476.57 18.35C223.63 18.35 18.64 221.12 18.64 471.05Z" fill="#1B56A6"/>
<path opacity="0.2" d="M42.04 471.05C42.04 233.85 236.67 41.61 476.6 41.61C716.48 41.61 911.01 233.85 911.01 471.05C911.01 708.2 716.48 900.41 476.6 900.41C236.67 900.41 42.04 708.2 42.04 471.05ZM60.66 471.05C60.66 698.01 246.87 882.11 476.6 882.11C706.28 882.11 892.52 698.01 892.52 471.05C892.52 244.02 706.29 59.94 476.6 59.94C246.86 59.94 60.66 244.02 60.66 471.05Z" fill="#1B56A6"/>
<path opacity="0.2" d="M244.65 179.7L389.96 470.86V186.06H474.62V437.62H525.18V107.36C708.09 130.88 849.29 285.46 849.29 472.67C849.29 560.97 817.85 642.32 765.37 705.75H643.72C706.63 661.63 750.87 592.95 762.45 514.06H608.73V705.75H525.17V514.07H474.61V820.54L228.38 321.54C194.71 382.29 187.75 424.48 187.75 472.67C187.75 568.76 235.77 654.09 309.57 705.75H191.07C137.93 642.1 103.83 561.63 103.83 472.67C103.83 358.08 151.13 254.83 244.65 179.7ZM608.73 437.62H763.33C751.49 342 691.84 261 608.73 218.65V437.62Z" fill="#1B56A6"/>
</g>
</svg>
