<svg width="355" height="62" viewBox="0 0 355 62" fill="none" xmlns="http://www.w3.org/2000/svg">
<g clip-path="url(#clip0_5_347)">
<path d="M355 29.8158H76.1328V32.2064H355V29.8158Z" fill="#1B56A6"/>
<path d="M65.0984 56.8868C65.0984 57.7058 64.8045 58.392 64.2166 58.9675C63.6287 59.543 62.9051 59.8308 62.0685 59.8308C61.2319 59.8308 60.5083 59.543 59.9204 58.9675C59.3325 58.392 59.0159 57.6837 59.0159 56.8868C59.0159 56.09 59.3099 55.3816 59.9204 54.8061C60.5083 54.2306 61.2319 53.9429 62.0685 53.9429C62.9051 53.9429 63.6287 54.2306 64.2166 54.8061C64.8045 55.3816 65.0984 56.0678 65.0984 56.8868ZM64.4201 56.8868C64.4201 56.2449 64.194 55.7137 63.7191 55.2488C63.2443 54.784 62.7016 54.5626 62.0459 54.5626C61.3901 54.5626 60.8475 54.784 60.3726 55.2488C59.8978 55.7137 59.6717 56.2449 59.6717 56.8868C59.6717 57.5287 59.8978 58.06 60.3726 58.5248C60.8475 58.9675 61.3901 59.211 62.0459 59.211C62.7016 59.211 63.2669 58.9896 63.7191 58.5248C64.194 58.0821 64.4201 57.5287 64.4201 56.8868ZM63.6965 58.2813H62.7694L61.8876 57.1967H61.5936V58.2813H60.8701V55.3595H61.978C62.1815 55.3595 62.3398 55.3595 62.4755 55.3595C62.6112 55.3595 62.7242 55.4259 62.8373 55.4923C62.9729 55.5809 63.086 55.6694 63.1312 55.7579C63.1991 55.8686 63.2217 56.0014 63.2217 56.1564C63.2217 56.3777 63.1538 56.5548 63.0408 56.6876C62.9277 56.8204 62.7694 56.9311 62.5659 56.9975L63.6739 58.2592L63.6965 58.2813ZM62.4303 56.2228C62.4303 56.2228 62.4303 56.1121 62.385 56.0457C62.3624 56.0014 62.3172 55.9572 62.2494 55.9129C62.2041 55.8907 62.1363 55.8686 62.0685 55.8686C62.0006 55.8686 61.9102 55.8686 61.7971 55.8686H61.571V56.6876H61.7519C61.7519 56.6876 61.9554 56.6876 62.0459 56.6655C62.1363 56.6655 62.2041 56.6212 62.2494 56.5769C62.2946 56.5327 62.3398 56.4884 62.3624 56.4441C62.385 56.3998 62.4076 56.3113 62.4076 56.2449" fill="#1B56A6"/>
<path d="M0 31.0111C0 13.8786 14.3583 0 32.0404 0C49.7226 0 64.0809 13.8786 64.0809 31.0111C64.0809 48.1435 49.7226 62 32.0404 62C14.3583 62 0 48.1214 0 31.0111ZM1.24363 31.0111C1.24363 47.4573 15.0366 60.8047 32.0404 60.8047C49.0443 60.8047 62.8373 47.4573 62.8373 31.0111C62.8373 14.5648 49.0443 1.21742 32.0404 1.21742C15.0366 1.21742 1.24363 14.5648 1.24363 31.0111Z" fill="#1B56A6"/>
<path d="M2.82642 31.0111C2.82642 15.3838 15.9185 2.74475 32.0404 2.74475C48.1624 2.74475 61.2544 15.4059 61.2544 31.0111C61.2544 46.6162 48.185 59.2774 32.0404 59.2774C15.8958 59.2774 2.82642 46.6162 2.82642 31.0111ZM4.07005 31.0111C4.07005 45.9522 16.5968 58.06 32.0404 58.06C47.4841 58.06 60.0108 45.9522 60.0108 31.0111C60.0108 16.07 47.4841 3.94004 32.0404 3.94004C16.5968 3.94004 4.07005 16.07 4.07005 31.0111Z" fill="#1B56A6"/>
<path d="M16.4611 11.82L26.2293 30.9889V12.2406H31.9274V28.7976H35.3191V7.06104C47.6197 8.61048 57.1166 18.7926 57.1166 31.0996C57.1166 36.9211 54.9911 42.2777 51.4637 46.4391H43.2783C47.5067 43.5394 50.4914 39.0239 51.2602 33.8222H40.9267V46.4391H35.3191V33.8222H31.9274V53.9871L15.3532 21.161C13.092 25.1674 12.6172 27.9343 12.6172 31.0996C12.6172 37.4302 15.8506 43.0525 20.8025 46.4391H12.8433C9.2707 42.2556 6.98694 36.9432 6.98694 31.0996C6.98694 23.5516 10.1752 16.7561 16.4611 11.82ZM40.9494 28.7976H51.3506C50.5592 22.5112 46.5344 17.1767 40.9494 14.3877V28.7976Z" fill="#1B56A6"/>
<path d="M90.1519 22.4669H86.1949L79.8863 11.4437V22.4669H76.1328V6.64045H81.1752L86.3984 15.7158V6.64045H90.1519V22.4669ZM100.056 19.368V16.8889C99.4 16.9553 98.8799 16.9996 98.4729 17.0439C98.0659 17.0881 97.6815 17.1767 97.2745 17.3095C96.9354 17.4202 96.6866 17.5972 96.4831 17.8186C96.3022 18.0621 96.2118 18.3498 96.2118 18.7483C96.2118 19.3016 96.3701 19.6779 96.6866 19.8993C97.0032 20.0985 97.4554 20.2092 98.0659 20.2092C98.4051 20.2092 98.7443 20.1428 99.1061 19.9878C99.4452 19.8329 99.7618 19.6337 100.056 19.368ZM100.056 21.2052C99.7844 21.4266 99.5583 21.6037 99.3548 21.7808C99.1513 21.9357 98.8573 22.1128 98.5182 22.2899C98.179 22.4448 97.8398 22.5776 97.5006 22.6661C97.1841 22.7547 96.7092 22.799 96.1213 22.799C95.036 22.799 94.1315 22.4448 93.408 21.7365C92.6844 21.0282 92.3226 20.1428 92.3226 19.0582C92.3226 18.1728 92.5035 17.4423 92.8653 16.9111C93.2271 16.3798 93.7471 15.9371 94.4481 15.6272C95.1491 15.2952 95.9857 15.0739 96.9354 14.9411C97.9077 14.8082 98.9478 14.7197 100.056 14.6533V14.5869C100.056 13.945 99.807 13.4801 99.3096 13.2367C98.8121 12.9932 98.0433 12.8604 97.0484 12.8604C96.5962 12.8604 96.0761 12.9489 95.4656 13.1039C94.8551 13.2588 94.2672 13.4801 93.6793 13.7236H93.3628V10.8461C93.7472 10.7354 94.3577 10.6026 95.2169 10.4698C96.0761 10.3148 96.9128 10.2484 97.7946 10.2484C99.9201 10.2484 101.458 10.5805 102.43 11.2667C103.402 11.9528 103.877 12.9932 103.877 14.3877V22.5112H100.056V21.2495V21.2052ZM115.002 14.0335H114.685C114.527 13.9892 114.324 13.945 114.052 13.9228C113.758 13.9007 113.464 13.8786 113.125 13.8786C112.718 13.8786 112.289 13.9228 111.859 14.0557C111.407 14.1663 110.977 14.2991 110.57 14.4541V22.4448H106.726V10.5362H110.57V12.2406C110.751 12.0856 111 11.8864 111.294 11.6651C111.61 11.4216 111.904 11.2445 112.153 11.0896C112.424 10.9346 112.763 10.7797 113.125 10.669C113.487 10.5583 113.849 10.4919 114.165 10.4919C114.301 10.4919 114.437 10.4919 114.595 10.4919C114.753 10.4919 114.889 10.4919 115.002 10.5141V14.0335ZM122.532 22.7768C121.514 22.7768 120.587 22.644 119.728 22.4005C118.868 22.157 118.145 21.7808 117.512 21.2495C116.901 20.7404 116.426 20.0764 116.065 19.3016C115.725 18.5269 115.545 17.5972 115.545 16.5348C115.545 15.3838 115.725 14.4319 116.11 13.6351C116.472 12.8382 116.992 12.1742 117.625 11.6429C118.235 11.156 118.959 10.7797 119.796 10.5362C120.632 10.2927 121.491 10.182 122.396 10.182C123.074 10.182 123.753 10.2484 124.454 10.4034C125.132 10.5583 125.81 10.8018 126.511 11.1338V14.3213H126.014C125.855 14.1885 125.675 14.0335 125.448 13.8564C125.222 13.6794 124.974 13.5244 124.725 13.3916C124.454 13.2367 124.137 13.1039 123.775 13.0153C123.413 12.9046 123.029 12.8604 122.599 12.8604C121.604 12.8604 120.858 13.1924 120.316 13.8564C119.773 14.5205 119.502 15.4059 119.502 16.5348C119.502 17.7301 119.796 18.6376 120.361 19.2131C120.926 19.8107 121.695 20.0985 122.645 20.0985C123.142 20.0985 123.549 20.0321 123.911 19.9436C124.273 19.8329 124.589 19.7001 124.861 19.5673C125.109 19.4123 125.335 19.2574 125.516 19.1024C125.697 18.9475 125.855 18.7925 125.991 18.6819H126.489V21.8693C126.262 21.9578 126.014 22.0685 125.72 22.1792C125.426 22.312 125.132 22.4005 124.838 22.4891C124.454 22.5776 124.114 22.6662 123.775 22.7104C123.459 22.7547 123.029 22.799 122.486 22.799M140.146 16.5126C140.146 18.4826 139.581 20.0321 138.473 21.161C137.365 22.2899 135.804 22.8432 133.769 22.8432C131.734 22.8432 130.197 22.2899 129.066 21.161C127.958 20.0321 127.393 18.4826 127.393 16.5126C127.393 14.5426 127.958 12.971 129.066 11.8422C130.197 10.7133 131.757 10.1599 133.769 10.1599C135.782 10.1599 137.365 10.7133 138.473 11.8422C139.581 12.971 140.146 14.5205 140.146 16.4905M136.189 16.4905C136.189 15.7822 136.121 15.2067 136.008 14.7197C135.872 14.2549 135.714 13.8786 135.511 13.5908C135.284 13.3031 135.036 13.1039 134.742 12.971C134.448 12.8604 134.131 12.794 133.769 12.794C133.408 12.794 133.114 12.8382 132.82 12.9489C132.548 13.0596 132.277 13.2367 132.051 13.5465C131.825 13.8122 131.644 14.1885 131.531 14.6754C131.395 15.1624 131.327 15.76 131.327 16.4905C131.327 17.221 131.395 17.8186 131.508 18.2613C131.621 18.704 131.802 19.0582 131.983 19.3459C132.187 19.6337 132.458 19.8329 132.752 19.9436C133.046 20.0764 133.408 20.1428 133.769 20.1428C134.086 20.1428 134.403 20.0764 134.719 19.9436C135.036 19.8107 135.284 19.6337 135.488 19.368C135.714 19.0582 135.895 18.704 136.008 18.2613C136.121 17.8186 136.189 17.2431 136.189 16.4684M146.907 22.644C145.347 22.644 144.193 22.3341 143.492 21.7143C142.769 21.0946 142.407 20.0764 142.407 18.6597V13.0817H140.937V10.4919H142.407V7.08314H146.251V10.4919H149.959V13.0817H146.251V17.3095C146.251 17.7301 146.251 18.0842 146.251 18.4162C146.251 18.7261 146.319 19.0139 146.432 19.2574C146.522 19.5009 146.703 19.7001 146.975 19.855C147.223 20.01 147.608 20.0764 148.105 20.0764C148.309 20.0764 148.58 20.0321 148.919 19.9436C149.258 19.855 149.484 19.7886 149.62 19.7001H149.937V22.312C149.53 22.4227 149.077 22.4891 148.603 22.5555C148.128 22.6219 147.562 22.644 146.884 22.644M155.363 22.4005H151.519V10.5362H155.363V22.4669V22.4005ZM155.476 8.7654H151.406V5.86572H155.476V8.7654ZM164.363 22.7326C163.345 22.7326 162.418 22.5997 161.559 22.3563C160.722 22.1128 159.976 21.7365 159.366 21.2052C158.755 20.6961 158.28 20.0321 157.918 19.2574C157.579 18.4826 157.398 17.553 157.398 16.4905C157.398 15.3395 157.579 14.3877 157.941 13.5908C158.325 12.794 158.823 12.1299 159.456 11.5987C160.067 11.1117 160.79 10.7354 161.627 10.4919C162.463 10.2484 163.323 10.1378 164.227 10.1378C164.905 10.1378 165.584 10.2042 166.262 10.3591C166.94 10.5141 167.641 10.7575 168.32 11.0896V14.277H167.822C167.664 14.1442 167.483 13.9892 167.257 13.8122C167.031 13.6351 166.782 13.4801 166.533 13.3473C166.262 13.1924 165.946 13.0596 165.584 12.971C165.222 12.8604 164.838 12.8161 164.408 12.8161C163.436 12.8161 162.667 13.1481 162.124 13.8122C161.582 14.4762 161.31 15.3616 161.31 16.4905C161.31 17.6858 161.604 18.5933 162.169 19.1688C162.735 19.7665 163.504 20.0542 164.453 20.0542C164.951 20.0542 165.358 19.9878 165.742 19.8993C166.104 19.7886 166.42 19.6558 166.692 19.523C166.963 19.368 167.167 19.2131 167.347 19.0582C167.528 18.9032 167.687 18.7483 167.822 18.6376H168.32V21.825C168.094 21.9136 167.845 22.0242 167.551 22.1349C167.257 22.2677 166.963 22.3563 166.669 22.4448C166.285 22.5333 165.946 22.6219 165.606 22.6661C165.29 22.7104 164.838 22.7547 164.318 22.7547M173.882 22.7547C172.978 22.7547 172.118 22.6661 171.304 22.4669C170.49 22.2677 169.835 22.0464 169.292 21.8029V18.6597H169.609C169.79 18.7925 169.993 18.9475 170.242 19.1024C170.468 19.2574 170.807 19.4344 171.214 19.6115C171.576 19.7665 171.983 19.9214 172.435 20.0321C172.887 20.1649 173.362 20.2092 173.905 20.2092C174.447 20.2092 174.922 20.1206 175.352 19.9657C175.759 19.8107 175.962 19.5451 175.962 19.191C175.962 18.9032 175.872 18.704 175.668 18.5712C175.488 18.4384 175.103 18.2834 174.561 18.1728C174.267 18.1063 173.905 18.0178 173.453 17.9514C173 17.8629 172.616 17.7743 172.254 17.6637C171.282 17.3759 170.558 16.9332 170.083 16.3798C169.586 15.8043 169.36 15.0517 169.36 14.1221C169.36 13.5908 169.496 13.0817 169.744 12.6169C169.993 12.152 170.377 11.7315 170.852 11.3552C171.35 10.9789 171.96 10.6911 172.684 10.4919C173.407 10.2706 174.221 10.182 175.126 10.182C176.03 10.182 176.776 10.2706 177.523 10.4255C178.246 10.5805 178.857 10.7797 179.354 11.0232V14.0335H179.06C178.925 13.945 178.721 13.79 178.427 13.6351C178.156 13.4801 177.862 13.3252 177.59 13.2145C177.251 13.0817 176.912 12.9489 176.505 12.8604C176.098 12.7718 175.691 12.7276 175.284 12.7276C174.719 12.7276 174.267 12.8161 173.882 13.0153C173.498 13.1924 173.294 13.4359 173.294 13.7458C173.294 14.0114 173.385 14.2327 173.588 14.3877C173.769 14.5426 174.199 14.6976 174.832 14.8525C175.171 14.9189 175.533 15.0075 175.985 15.0739C176.415 15.1403 176.822 15.2509 177.229 15.3838C178.111 15.6715 178.789 16.0699 179.241 16.6012C179.693 17.1324 179.919 17.8629 179.919 18.7483C179.919 19.3016 179.784 19.8329 179.512 20.342C179.241 20.8511 178.857 21.2716 178.359 21.6258C177.817 22.0021 177.206 22.2899 176.505 22.4891C175.782 22.6883 174.922 22.799 173.95 22.799M186.816 22.4669L192.356 6.64045H196.833L202.35 22.4669H198.122L197.104 19.2352H191.971L190.954 22.4669H186.839H186.816ZM196.2 16.3798L194.526 11.1781L192.853 16.3798H196.2ZM215.329 22.4669H211.462V16.5569C211.462 16.0699 211.44 15.6051 211.395 15.1181C211.349 14.6533 211.282 14.277 211.168 14.0557C211.033 13.79 210.852 13.5908 210.581 13.4801C210.332 13.3695 209.993 13.3031 209.586 13.3031C209.269 13.3031 208.953 13.3695 208.636 13.4801C208.319 13.5908 207.98 13.7679 207.596 14.0335V22.4891H203.752V10.5362H207.596V11.8643C208.229 11.3552 208.84 10.9568 209.427 10.6469C210.015 10.3591 210.694 10.2042 211.417 10.2042C212.683 10.2042 213.656 10.5805 214.311 11.3552C214.967 12.1299 215.306 13.2367 215.306 14.6976V22.4669H215.329ZM230.026 16.5126C230.026 18.4826 229.461 20.0321 228.353 21.161C227.245 22.2899 225.662 22.8432 223.65 22.8432C221.638 22.8432 220.055 22.2899 218.947 21.161C217.816 20.0321 217.274 18.4826 217.274 16.5126C217.274 14.5426 217.839 12.971 218.947 11.8422C220.055 10.7133 221.638 10.1599 223.65 10.1599C225.662 10.1599 227.245 10.7133 228.353 11.8422C229.461 12.971 230.026 14.5205 230.026 16.4905M226.069 16.4905C226.069 15.7822 226.024 15.2067 225.889 14.7197C225.753 14.2549 225.595 13.8786 225.391 13.5908C225.165 13.3031 224.894 13.1039 224.622 12.971C224.328 12.8604 224.012 12.794 223.65 12.794C223.311 12.794 222.994 12.8382 222.7 12.9489C222.429 13.0596 222.18 13.2367 221.932 13.5465C221.705 13.8122 221.547 14.1885 221.411 14.6754C221.276 15.1624 221.208 15.76 221.208 16.4905C221.208 17.221 221.276 17.8186 221.389 18.2613C221.525 18.704 221.683 19.0582 221.886 19.3459C222.09 19.6337 222.339 19.8329 222.655 19.9436C222.972 20.0764 223.311 20.1428 223.673 20.1428C223.989 20.1428 224.306 20.0764 224.622 19.9436C224.939 19.8107 225.188 19.6337 225.368 19.368C225.595 19.0582 225.775 18.704 225.889 18.2613C226.002 17.8186 226.047 17.2431 226.047 16.4684M243.616 22.4005H239.749V16.4905C239.749 16.0035 239.749 15.5387 239.682 15.0517C239.636 14.5869 239.568 14.2106 239.455 13.9892C239.32 13.7236 239.139 13.5244 238.89 13.4137C238.641 13.3031 238.302 13.2367 237.895 13.2367C237.579 13.2367 237.262 13.3031 236.946 13.4137C236.629 13.5244 236.267 13.7015 235.905 13.9671V22.4227H232.061V10.5362H235.905V11.8643C236.539 11.3552 237.149 10.9568 237.76 10.6469C238.347 10.3591 239.026 10.2042 239.749 10.2042C241.016 10.2042 241.965 10.5805 242.644 11.3552C243.322 12.1299 243.639 13.2367 243.639 14.6976V22.4669L243.616 22.4005ZM257.974 10.4698L251.756 26.7833H247.618L249.495 22.1349L244.973 10.4698H249.02L251.62 17.9735L254.062 10.4698H258.019H257.974ZM274.164 22.4005V16.4462C274.164 15.8486 274.164 15.3616 274.141 14.9632C274.119 14.5648 274.051 14.2327 273.938 13.9892C273.825 13.7236 273.667 13.5466 273.418 13.4359C273.192 13.3252 272.875 13.2588 272.446 13.2588C272.152 13.2588 271.858 13.3252 271.586 13.4359C271.292 13.5687 270.998 13.7458 270.659 13.9671V22.4227H266.793V16.4684C266.793 15.8929 266.793 15.3838 266.747 14.9853C266.725 14.5869 266.657 14.2549 266.544 13.9892C266.431 13.7236 266.25 13.5466 266.024 13.4359C265.798 13.3252 265.481 13.2588 265.052 13.2588C264.735 13.2588 264.441 13.3252 264.125 13.4801C263.831 13.6351 263.537 13.79 263.243 13.9892V22.4448H259.399V10.5362H263.243V11.8643C263.876 11.3552 264.464 10.9568 265.029 10.6469C265.594 10.3591 266.205 10.2042 266.906 10.2042C267.652 10.2042 268.33 10.3813 268.896 10.7133C269.461 11.0674 269.913 11.5765 270.207 12.2627C270.953 11.5987 271.632 11.0896 272.31 10.7133C272.966 10.3591 273.621 10.182 274.3 10.182C274.865 10.182 275.385 10.2706 275.837 10.4477C276.29 10.6247 276.674 10.8904 276.99 11.2445C277.33 11.6208 277.601 12.0856 277.759 12.6169C277.94 13.1481 278.008 13.8343 278.008 14.6976V22.4669H274.141L274.164 22.4005ZM292.728 16.4462C292.728 18.4162 292.163 19.9657 291.055 21.0946C289.947 22.2234 288.387 22.7768 286.352 22.7768C284.317 22.7768 282.779 22.2234 281.648 21.0946C280.518 19.9657 279.975 18.4162 279.975 16.4462C279.975 14.4762 280.54 12.9046 281.648 11.7758C282.756 10.6469 284.317 10.0935 286.352 10.0935C288.387 10.0935 289.947 10.6469 291.055 11.7758C292.163 12.9046 292.728 14.4541 292.728 16.4241M288.771 16.4241C288.771 15.7158 288.703 15.1403 288.59 14.6533C288.477 14.1885 288.296 13.8122 288.093 13.5244C287.867 13.2367 287.618 13.0374 287.324 12.9046C287.03 12.794 286.713 12.7276 286.352 12.7276C286.012 12.7276 285.696 12.7718 285.425 12.8825C285.153 12.9932 284.904 13.1703 284.656 13.4801C284.43 13.7458 284.271 14.1221 284.136 14.609C284 15.096 283.932 15.6936 283.932 16.4241C283.932 17.1545 284 17.7522 284.113 18.1949C284.249 18.6376 284.407 18.9917 284.588 19.2795C284.791 19.5673 285.063 19.7665 285.357 19.8771C285.673 20.01 286.012 20.0764 286.374 20.0764C286.691 20.0764 286.985 20.01 287.324 19.8771C287.64 19.7443 287.889 19.5673 288.093 19.3016C288.319 18.9917 288.5 18.6376 288.613 18.1949C288.726 17.7522 288.794 17.1767 288.794 16.402M306.25 22.3341H302.406V21.0282C301.727 21.5594 301.117 21.98 300.574 22.2456C300.009 22.5333 299.353 22.6661 298.584 22.6661C297.363 22.6661 296.414 22.2899 295.713 21.5373C295.012 20.8068 294.673 19.6558 294.673 18.1728V10.4034H298.539V16.3356C298.539 16.9553 298.539 17.4644 298.584 17.8407C298.63 18.2392 298.697 18.5712 298.811 18.8368C298.924 19.0803 299.104 19.2574 299.353 19.3902C299.602 19.523 299.941 19.5894 300.393 19.5894C300.665 19.5894 300.981 19.523 301.366 19.3902C301.727 19.2574 302.067 19.0803 302.383 18.8811V10.4255H306.227V22.3563L306.25 22.3341ZM312.965 22.6661C312.038 22.6661 311.179 22.5776 310.388 22.3784C309.574 22.1792 308.895 21.9578 308.375 21.7143V18.5712H308.692C308.873 18.704 309.076 18.8589 309.325 19.0139C309.551 19.1688 309.89 19.3459 310.297 19.523C310.659 19.6779 311.066 19.8329 311.518 19.9436C311.97 20.0764 312.468 20.1206 312.988 20.1206C313.531 20.1206 314.005 20.0321 314.435 19.8771C314.842 19.7222 315.046 19.4566 315.046 19.1024C315.046 18.8147 314.955 18.6155 314.774 18.4826C314.571 18.3498 314.209 18.1949 313.666 18.0842C313.372 18.0178 313.011 17.9293 312.558 17.8629C312.106 17.7743 311.699 17.6858 311.383 17.5751C310.41 17.2874 309.687 16.8447 309.189 16.2913C308.692 15.7158 308.443 14.9632 308.443 14.0335C308.443 13.5023 308.579 12.9932 308.827 12.5283C309.076 12.0635 309.438 11.6429 309.935 11.2667C310.433 10.8904 311.021 10.6026 311.744 10.4034C312.468 10.182 313.282 10.0935 314.186 10.0935C315.091 10.0935 315.86 10.182 316.583 10.337C317.307 10.4919 317.917 10.6911 318.415 10.9346V13.945H318.098C317.962 13.8564 317.759 13.7015 317.488 13.5465C317.194 13.3916 316.922 13.2367 316.651 13.126C316.334 12.9932 315.973 12.8604 315.566 12.7718C315.159 12.6833 314.752 12.639 314.345 12.639C313.802 12.639 313.327 12.7276 312.943 12.9268C312.558 13.1039 312.355 13.3473 312.355 13.6572C312.355 13.9228 312.445 14.1442 312.626 14.2991C312.83 14.4541 313.237 14.609 313.87 14.764C314.209 14.8304 314.571 14.9189 315 14.9853C315.43 15.0517 315.837 15.1624 316.244 15.2952C317.126 15.583 317.804 15.9814 318.256 16.5126C318.709 17.0439 318.935 17.7743 318.935 18.6597C318.935 19.2131 318.799 19.7443 318.528 20.2534C318.256 20.7625 317.872 21.1831 317.375 21.5373C316.854 21.9136 316.221 22.2013 315.52 22.4005C314.797 22.5997 313.938 22.7104 312.965 22.7104" fill="#1B56A6"/>
<path d="M76.1328 53.8322L81.65 38.0057H86.1497L91.6669 53.8322H87.4385L86.3984 50.6005H81.2656L80.2255 53.8322H76.1102H76.1328ZM85.5165 47.723L83.8433 42.4991L82.17 47.723H85.5165ZM104.736 53.8322H100.892V48.719H96.9127V53.8322H93.0688V41.9015H96.9127V46.0407H100.892V41.9015H104.736V53.8322ZM119.524 47.8779C119.524 49.8479 118.959 51.3974 117.851 52.5263C116.743 53.6551 115.16 54.2085 113.148 54.2085C111.135 54.2085 109.575 53.6551 108.445 52.5263C107.337 51.3974 106.771 49.8479 106.771 47.8779C106.771 45.9079 107.337 44.3363 108.445 43.2074C109.553 42.0786 111.135 41.5252 113.148 41.5252C115.16 41.5252 116.743 42.0786 117.851 43.2074C118.959 44.3363 119.524 45.8858 119.524 47.8558M115.567 47.8558C115.567 47.1475 115.499 46.5498 115.386 46.085C115.273 45.6202 115.092 45.2439 114.889 44.9561C114.663 44.6684 114.391 44.447 114.12 44.3363C113.826 44.2257 113.51 44.1593 113.148 44.1593C112.809 44.1593 112.492 44.2035 112.221 44.3142C111.949 44.4027 111.678 44.6019 111.452 44.8897C111.248 45.1553 111.067 45.5538 110.932 46.0186C110.796 46.5056 110.728 47.1253 110.728 47.8337C110.728 48.542 110.796 49.1617 110.909 49.6044C111.045 50.0471 111.203 50.4013 111.384 50.6669C111.588 50.9547 111.836 51.1539 112.153 51.2646C112.447 51.3974 112.809 51.4638 113.17 51.4638C113.464 51.4638 113.781 51.3974 114.12 51.2646C114.437 51.1318 114.685 50.9547 114.866 50.6891C115.092 50.3792 115.273 50.025 115.386 49.5823C115.499 49.1396 115.567 48.5641 115.567 47.7894M133.227 53.7215H129.383V48.6084H125.403V53.7215H121.559V41.7908H125.403V45.93H129.383V41.7908H133.227V53.7215ZM147.902 53.7215H144.125V46.4613L139.4 53.7215H136.166V41.7908H139.965L140.01 48.0107L144.284 41.7908H147.902V53.7215ZM164.928 53.7215H161.152V46.2399L158.665 51.2203H157.037L154.527 46.2399V53.7215H150.841V41.7908H155.024L157.873 47.3245L160.722 41.7908H164.905V53.7215H164.928ZM179.535 53.7215H175.691V48.6084H171.711V53.7215H167.867V41.7908H171.711V45.93H175.691V41.7908H179.535V53.7215ZM193.464 49.7151C193.464 50.3349 193.351 50.8883 193.079 51.3974C192.831 51.9065 192.514 52.327 192.107 52.6591C191.61 53.0575 191.089 53.3231 190.569 53.4781C190.049 53.633 189.326 53.7215 188.421 53.7215H182.497V41.7908H186.341V45.8194H188.444C189.326 45.8194 190.049 45.8858 190.592 45.9965C191.135 46.1293 191.655 46.3506 192.152 46.7048C192.582 47.0147 192.921 47.4352 193.147 47.9665C193.373 48.4977 193.486 49.0732 193.486 49.7151M189.258 50.7555C189.394 50.6005 189.461 50.4456 189.507 50.2685C189.552 50.0914 189.574 49.9365 189.574 49.7594C189.574 49.2503 189.416 48.874 189.1 48.6305C188.783 48.387 188.331 48.2542 187.743 48.2542H186.341V51.331H187.743C188.15 51.331 188.467 51.2867 188.715 51.176C188.964 51.0654 189.145 50.9325 189.258 50.7776M198.596 53.7437H194.753V41.8129H198.596V53.7437ZM207.867 54.0536C205.538 54.0536 203.752 53.5223 202.508 52.4377C201.265 51.3531 200.654 49.8258 200.654 47.8337C200.654 45.8415 201.242 44.3363 202.395 43.1632C203.548 41.99 205.176 41.4145 207.257 41.4145C209.156 41.4145 210.581 41.9015 211.53 42.8976C212.48 43.8936 212.955 45.2881 212.955 47.1253V48.4756H204.521C204.566 49.0289 204.679 49.4938 204.882 49.8479C205.086 50.2242 205.357 50.512 205.696 50.7333C206.013 50.9547 206.42 51.1096 206.85 51.1982C207.279 51.2867 207.777 51.3531 208.297 51.3531C208.749 51.3531 209.179 51.3088 209.608 51.1982C210.038 51.1096 210.445 50.9768 210.807 50.8219C211.123 50.6891 211.417 50.5341 211.689 50.3792C211.96 50.2242 212.163 50.0914 212.344 49.9586H212.751V53.0354C212.435 53.146 212.141 53.2567 211.892 53.3674C211.643 53.4781 211.281 53.5666 210.829 53.6773C210.4 53.788 209.97 53.8765 209.54 53.9208C209.088 53.9872 208.568 54.0093 207.912 54.0093M209.179 46.1957C209.156 45.3988 208.975 44.8012 208.613 44.4027C208.252 43.9822 207.709 43.783 206.985 43.783C206.262 43.783 205.651 44.0043 205.222 44.4249C204.792 44.8454 204.566 45.4431 204.521 46.1957H209.179ZM235.589 53.6994H231.474V46.6826H225.889V53.6994H221.773V37.8729H225.889V43.6723H231.474V37.8729H235.589V53.6994ZM245.56 50.5784V48.0771C244.905 48.1435 244.385 48.1878 243.978 48.2321C243.571 48.2764 243.186 48.3649 242.779 48.4977C242.44 48.6084 242.191 48.7855 242.01 49.0068C241.807 49.2282 241.717 49.538 241.717 49.9365C241.717 50.4898 241.875 50.8661 242.191 51.0875C242.508 51.2867 242.96 51.3974 243.571 51.3974C243.91 51.3974 244.249 51.331 244.611 51.176C244.973 51.0211 245.289 50.8219 245.56 50.5563M245.56 52.3935C245.289 52.6148 245.063 52.7919 244.86 52.969C244.656 53.1239 244.385 53.301 244.023 53.4781C243.684 53.633 243.345 53.7658 243.028 53.8544C242.711 53.9429 242.237 53.9872 241.649 53.9872C240.563 53.9872 239.659 53.633 238.935 52.9247C238.212 52.2164 237.85 51.331 237.85 50.2464C237.85 49.361 238.031 48.6305 238.393 48.0993C238.754 47.5459 239.297 47.1253 239.975 46.8154C240.676 46.4834 241.513 46.2621 242.463 46.1293C243.435 45.9965 244.475 45.9079 245.583 45.8194V45.753C245.583 45.0889 245.334 44.6241 244.814 44.3806C244.317 44.1371 243.571 44.0043 242.553 44.0043C242.101 44.0043 241.581 44.0928 240.97 44.2478C240.36 44.4027 239.772 44.6241 239.184 44.8676H238.845V41.99C239.229 41.8793 239.84 41.7687 240.699 41.6137C241.558 41.4809 242.417 41.3924 243.277 41.3924C245.402 41.3924 246.962 41.7244 247.935 42.4327C248.907 43.1189 249.382 44.1592 249.382 45.5538V53.6773H245.56V52.4156V52.3935ZM264.328 47.5238C264.328 49.4274 263.831 50.9547 262.813 52.1278C261.818 53.301 260.574 53.8765 259.127 53.8765C258.517 53.8765 257.974 53.8101 257.522 53.6773C257.07 53.5445 256.595 53.3231 256.075 53.0354V58.0157H252.231V41.7023H256.075V42.9418C256.64 42.477 257.205 42.1007 257.793 41.8129C258.381 41.5252 259.06 41.3702 259.828 41.3702C261.253 41.3702 262.361 41.9236 263.152 43.0082C263.944 44.115 264.328 45.598 264.328 47.5016M260.394 47.5902C260.394 46.4391 260.213 45.5759 259.828 45.0668C259.467 44.5355 258.879 44.2921 258.11 44.2921C257.771 44.2921 257.431 44.3363 257.092 44.447C256.753 44.5577 256.414 44.7126 256.097 44.934V50.9325C256.301 51.0211 256.527 51.0875 256.776 51.1096C257.024 51.1539 257.318 51.1539 257.658 51.1539C258.607 51.1539 259.286 50.8661 259.738 50.2685C260.19 49.6708 260.416 48.7855 260.416 47.5902M278.596 53.6551H274.164L271.247 48.9183H270.252V53.6551H266.408V41.7244H270.252V46.5056C270.795 46.5056 271.202 46.417 271.473 46.2842C271.745 46.1293 272.038 45.753 272.355 45.1332C272.445 44.9118 272.581 44.6905 272.694 44.4249C272.807 44.1592 272.92 43.9379 273.011 43.7387C273.395 42.9418 273.87 42.4106 274.458 42.1228C275.023 41.8351 275.724 41.6801 276.538 41.6801C276.81 41.6801 277.081 41.6801 277.352 41.6801C277.601 41.6801 277.782 41.6801 277.895 41.6801V44.8676H277.149C276.923 44.8676 276.696 44.9118 276.516 45.0004C276.335 45.0889 276.176 45.1996 276.041 45.3324C275.905 45.4652 275.792 45.6202 275.724 45.753C275.656 45.8858 275.589 46.0407 275.521 46.1735C275.34 46.5498 275.227 46.8376 275.136 46.9925C275.046 47.1475 274.91 47.3245 274.707 47.4795L278.618 53.633L278.596 53.6551ZM291.824 47.7008C291.824 49.6708 291.258 51.2203 290.15 52.3492C289.042 53.4781 287.46 54.0314 285.447 54.0314C283.435 54.0314 281.874 53.4781 280.744 52.3492C279.636 51.2203 279.071 49.6708 279.071 47.7008C279.071 45.7308 279.636 44.1593 280.744 43.0304C281.852 41.9015 283.412 41.3481 285.447 41.3481C287.482 41.3481 289.042 41.9015 290.15 43.0304C291.258 44.1593 291.824 45.7087 291.824 47.6787M287.867 47.6787C287.867 46.9704 287.799 46.3727 287.686 45.9079C287.55 45.4431 287.392 45.0668 287.188 44.779C286.962 44.4913 286.691 44.2699 286.419 44.1593C286.148 44.0486 285.809 43.9822 285.447 43.9822C285.108 43.9822 284.791 44.0264 284.52 44.1371C284.249 44.2257 283.977 44.4249 283.751 44.7126C283.548 44.9782 283.367 45.3767 283.231 45.8415C283.096 46.3285 283.028 46.9483 283.028 47.6566C283.028 48.3649 283.095 48.9847 283.209 49.4274C283.322 49.8701 283.48 50.2242 283.683 50.4898C283.887 50.7776 284.136 50.9768 284.452 51.0875C284.769 51.2203 285.108 51.2867 285.47 51.2867C285.764 51.2867 286.103 51.2203 286.419 51.0875C286.736 50.9547 286.985 50.7776 287.188 50.512C287.414 50.2021 287.595 49.8479 287.708 49.4052C287.821 48.9625 287.889 48.387 287.889 47.6123M307.968 53.5445H304.192V46.0629L301.682 51.0432H300.054L297.544 46.0629V53.5445H293.859V41.6137H298.042L300.891 47.1475L303.74 41.6137H307.923V53.5445H307.968ZM317.714 50.4234V47.9222C317.058 47.9886 316.538 48.0329 316.131 48.0771C315.724 48.1214 315.339 48.2099 314.955 48.3428C314.616 48.4534 314.367 48.6305 314.164 48.8519C313.983 49.0732 313.87 49.3831 313.87 49.7815C313.87 50.3349 314.028 50.7112 314.345 50.9325C314.661 51.1318 315.113 51.2424 315.724 51.2424C316.063 51.2424 316.402 51.176 316.764 51.0211C317.126 50.8661 317.442 50.6669 317.714 50.4013M317.714 52.2385C317.442 52.4599 317.216 52.6369 317.013 52.814C316.809 52.969 316.515 53.146 316.176 53.3231C315.837 53.4781 315.498 53.6109 315.181 53.6994C314.842 53.788 314.39 53.8322 313.802 53.8322C312.717 53.8322 311.812 53.4781 311.088 52.7697C310.365 52.0614 310.003 51.176 310.003 50.0914C310.003 49.206 310.184 48.4756 310.546 47.9443C310.908 47.391 311.45 46.9704 312.129 46.6605C312.83 46.3285 313.666 46.1071 314.638 45.9743C315.611 45.8415 316.651 45.753 317.759 45.6644V45.598C317.759 44.934 317.51 44.4691 317.013 44.2257C316.515 43.9822 315.746 43.8494 314.752 43.8494C314.299 43.8494 313.757 43.9379 313.146 44.0928C312.536 44.2478 311.948 44.4691 311.36 44.7126H311.021V41.8351C311.405 41.7244 312.016 41.6137 312.875 41.4588C313.734 41.326 314.593 41.2374 315.452 41.2374C317.578 41.2374 319.138 41.5695 320.11 42.2778C321.083 42.964 321.558 44.0043 321.558 45.3988V53.5223H317.736V52.2606L317.714 52.2385ZM336.052 53.5002H332.208V48.387H328.228V53.5002H324.384V41.5695H328.228V45.7087H332.208V41.5695H336.052V53.5002ZM349.98 49.4938C349.98 50.1136 349.867 50.6669 349.618 51.176C349.37 51.6851 349.053 52.1057 348.646 52.4377C348.149 52.8362 347.629 53.1018 347.109 53.2567C346.588 53.4117 345.865 53.5002 344.96 53.5002H339.014V41.5695H342.858V45.598H344.96C345.842 45.598 346.566 45.6644 347.109 45.7751C347.651 45.9079 348.171 46.1293 348.669 46.4834C349.098 46.7933 349.415 47.2139 349.664 47.7451C349.89 48.2763 350.003 48.8519 350.003 49.4938M345.774 50.5341C345.91 50.3792 345.978 50.2242 346.023 50.0471C346.068 49.8701 346.091 49.7151 346.091 49.538C346.091 49.0289 345.933 48.6526 345.616 48.4092C345.3 48.1657 344.847 48.0329 344.259 48.0329H342.858V51.1096H344.259C344.667 51.1096 344.983 51.0654 345.232 50.9547C345.48 50.844 345.661 50.7112 345.774 50.5563M355.113 53.5223H351.269V41.5916H355.113V53.5223Z" fill="#1B56A6"/>
<path d="M328.092 22.2235C328.092 23.0425 327.798 23.7287 327.211 24.3042C326.623 24.8797 325.899 25.1674 325.062 25.1674C324.226 25.1674 323.502 24.8797 322.914 24.3042C322.326 23.7287 322.01 23.0203 322.01 22.2235C322.01 21.4266 322.304 20.7183 322.914 20.1428C323.502 19.5673 324.226 19.2795 325.062 19.2795C325.899 19.2795 326.623 19.5673 327.211 20.1428C327.798 20.7183 328.092 21.4045 328.092 22.2235ZM327.414 22.2235C327.414 21.5816 327.188 21.0503 326.713 20.5855C326.238 20.1207 325.696 19.8993 325.04 19.8993C324.384 19.8993 323.841 20.1207 323.367 20.5855C322.914 21.0282 322.666 21.5816 322.666 22.2235C322.666 22.8654 322.892 23.3966 323.367 23.8615C323.841 24.3263 324.384 24.5477 325.04 24.5477C325.696 24.5477 326.261 24.3263 326.713 23.8615C327.165 23.4188 327.414 22.8654 327.414 22.2235ZM326.69 23.618H325.786L324.904 22.5334H324.61V23.618H323.887V20.674H324.995C325.198 20.674 325.356 20.674 325.492 20.6962C325.605 20.6962 325.741 20.7626 325.854 20.829C325.989 20.9175 326.08 20.9839 326.148 21.0946C326.216 21.2053 326.238 21.3381 326.238 21.493C326.238 21.7144 326.17 21.8915 326.057 22.0243C325.944 22.1571 325.786 22.2678 325.583 22.3342L326.69 23.5959V23.618ZM325.447 21.5594C325.447 21.5594 325.447 21.4488 325.424 21.3824C325.402 21.3381 325.356 21.2938 325.289 21.2717C325.243 21.2496 325.175 21.2274 325.108 21.2053C325.04 21.2053 324.949 21.2053 324.836 21.2053H324.61V22.0243H324.791C324.791 22.0243 324.995 22.0243 325.085 22.0021C325.175 22.0021 325.243 21.9579 325.289 21.9136C325.334 21.8693 325.379 21.8251 325.402 21.7808C325.424 21.7144 325.424 21.648 325.424 21.5594" fill="#1B56A6"/>
</g>
<defs>
<clipPath id="clip0_5_347">
<rect width="355" height="62" fill="white"/>
</clipPath>
</defs>
</svg>
