<svg width="230" height="41" viewBox="0 0 230 41" fill="none" xmlns="http://www.w3.org/2000/svg">
<g clip-path="url(#clip0_48_2)">
<path d="M230 19.7169H49.3255V21.2978H230V19.7169Z" fill="#1B56A6"/>
<path d="M42.1764 37.6187C42.1764 38.1603 41.986 38.6141 41.6051 38.9946C41.2242 39.3752 40.7554 39.5655 40.2134 39.5655C39.6713 39.5655 39.2025 39.3752 38.8216 38.9946C38.4408 38.6141 38.2357 38.1457 38.2357 37.6187C38.2357 37.0918 38.4261 36.6234 38.8216 36.2428C39.2025 35.8622 39.6713 35.6719 40.2134 35.6719C40.7554 35.6719 41.2242 35.8622 41.6051 36.2428C41.986 36.6234 42.1764 37.0771 42.1764 37.6187ZM41.7369 37.6187C41.7369 37.1942 41.5904 36.8429 41.2828 36.5355C40.9751 36.2281 40.6236 36.0818 40.1987 36.0818C39.7739 36.0818 39.4223 36.2281 39.1146 36.5355C38.807 36.8429 38.6605 37.1942 38.6605 37.6187C38.6605 38.0432 38.807 38.3945 39.1146 38.7019C39.4223 38.9946 39.7739 39.1557 40.1987 39.1557C40.6236 39.1557 40.9898 39.0093 41.2828 38.7019C41.5904 38.4091 41.7369 38.0432 41.7369 37.6187ZM41.2681 38.5409H40.6675L40.0962 37.8236H39.9057V38.5409H39.4369V36.6087H40.1548C40.2866 36.6087 40.3892 36.6087 40.4771 36.6087C40.565 36.6087 40.6382 36.6526 40.7115 36.6965C40.7994 36.7551 40.8726 36.8136 40.9019 36.8722C40.9458 36.9454 40.9605 37.0332 40.9605 37.1357C40.9605 37.282 40.9165 37.3991 40.8433 37.487C40.7701 37.5748 40.6675 37.648 40.5357 37.6919L41.2535 38.5262L41.2681 38.5409ZM40.4478 37.1796C40.4478 37.1796 40.4478 37.1064 40.4185 37.0625C40.4038 37.0332 40.3745 37.0039 40.3306 36.9747C40.3013 36.96 40.2573 36.9454 40.2134 36.9454C40.1694 36.9454 40.1108 36.9454 40.0376 36.9454H39.8911V37.487H40.0083C40.0083 37.487 40.1401 37.487 40.1987 37.4723C40.2573 37.4723 40.3013 37.4431 40.3306 37.4138C40.3599 37.3845 40.3892 37.3552 40.4038 37.326C40.4185 37.2967 40.4331 37.2381 40.4331 37.1942" fill="#1B56A6"/>
<path d="M0 20.5073C0 9.17779 9.30255 0 20.7586 0C32.2147 0 41.5172 9.17779 41.5172 20.5073C41.5172 31.8368 32.2147 41 20.7586 41C9.30255 41 0 31.8222 0 20.5073ZM0.805733 20.5073C0.805733 31.3831 9.74204 40.2096 20.7586 40.2096C31.7752 40.2096 40.7115 31.3831 40.7115 20.5073C40.7115 9.63156 31.7752 0.80507 20.7586 0.80507C9.74204 0.80507 0.805733 9.63156 0.805733 20.5073Z" fill="#1B56A6"/>
<path d="M1.83121 20.5073C1.83121 10.1732 10.3134 1.81506 20.7586 1.81506C31.2038 1.81506 39.686 10.1878 39.686 20.5073C39.686 30.8268 31.2185 39.1996 20.7586 39.1996C10.2987 39.1996 1.83121 30.8268 1.83121 20.5073ZM2.63694 20.5073C2.63694 30.3877 10.7529 38.3945 20.7586 38.3945C30.7643 38.3945 38.8803 30.3877 38.8803 20.5073C38.8803 10.6269 30.7643 2.6055 20.7586 2.6055C10.7529 2.6055 2.63694 10.6269 2.63694 20.5073Z" fill="#1B56A6"/>
<path d="M10.665 7.81649L16.9936 20.4927V8.09461H20.6854V19.0436H22.8828V4.6694C30.8522 5.69404 37.0051 12.4273 37.0051 20.5659C37.0051 24.4156 35.628 27.9579 33.3427 30.7097H28.0395C30.779 28.7922 32.7128 25.8061 33.2108 22.3663H26.5159V30.7097H22.8828V22.3663H20.6854V35.7012L9.94715 13.9936C8.48218 16.643 8.17453 18.4727 8.17453 20.5659C8.17453 24.7522 10.2694 28.4702 13.4777 30.7097H8.32103C6.00638 27.9432 4.52676 24.4302 4.52676 20.5659C4.52676 15.5744 6.59237 11.0807 10.665 7.81649ZM26.5306 19.0436H33.2694C32.7567 14.8865 30.1491 11.3588 26.5306 9.51446V19.0436Z" fill="#1B56A6"/>
<path d="M58.4083 14.8572H55.8446L51.7573 7.56765V14.8572H49.3255V4.39128H52.5924L55.9764 10.3927V4.39128H58.4083V14.8572ZM64.8248 12.8079V11.1685C64.4 11.2124 64.0631 11.2417 63.7994 11.271C63.5357 11.3002 63.2866 11.3588 63.0229 11.4466C62.8032 11.5198 62.642 11.6369 62.5102 11.7833C62.393 11.9443 62.3344 12.1346 62.3344 12.3981C62.3344 12.764 62.4369 13.0128 62.642 13.1592C62.8471 13.291 63.1401 13.3642 63.5357 13.3642C63.7554 13.3642 63.9752 13.3202 64.2096 13.2178C64.4293 13.1153 64.6344 12.9836 64.8248 12.8079ZM64.8248 14.0228C64.649 14.1692 64.5025 14.2863 64.3707 14.4034C64.2388 14.5059 64.0484 14.623 63.8287 14.7401C63.6089 14.8426 63.3892 14.9304 63.1694 14.9889C62.9643 15.0475 62.6567 15.0768 62.2758 15.0768C61.5726 15.0768 60.9866 14.8426 60.5178 14.3741C60.049 13.9057 59.8146 13.3202 59.8146 12.603C59.8146 12.0175 59.9318 11.5344 60.1662 11.1831C60.4006 10.8318 60.7376 10.5391 61.1917 10.3342C61.6459 10.1146 62.1879 9.96822 62.8032 9.88039C63.4331 9.79257 64.107 9.73402 64.8248 9.69011V9.64619C64.8248 9.2217 64.6637 8.91431 64.3414 8.7533C64.0191 8.59228 63.521 8.50446 62.8764 8.50446C62.5834 8.50446 62.2465 8.56301 61.851 8.66547C61.4554 8.76794 61.0745 8.91431 60.6936 9.07533H60.4885V7.17243C60.7376 7.09925 61.1331 7.01142 61.6898 6.92359C62.2465 6.82113 62.7885 6.77722 63.3599 6.77722C64.7369 6.77722 65.7331 6.99678 66.3631 7.45055C66.993 7.90432 67.3006 8.59228 67.3006 9.51445V14.8865H64.8248V14.0521V14.0228ZM74.5083 9.28025H74.3032C74.2006 9.25098 74.0688 9.2217 73.893 9.20706C73.7025 9.19243 73.5121 9.17779 73.2924 9.17779C73.0287 9.17779 72.7503 9.20706 72.472 9.29489C72.179 9.36808 71.9006 9.4559 71.6369 9.55837V14.8426H69.1465V6.96751H71.6369V8.0946C71.7541 7.99214 71.9153 7.8604 72.1057 7.71403C72.3108 7.55301 72.5013 7.43591 72.6624 7.33345C72.8382 7.23098 73.058 7.12852 73.2924 7.05533C73.5267 6.98214 73.7611 6.93823 73.9662 6.93823C74.0541 6.93823 74.142 6.93823 74.2446 6.93823C74.3471 6.93823 74.435 6.93823 74.5083 6.95287V9.28025ZM79.3866 15.0621C78.7274 15.0621 78.1267 14.9743 77.5701 14.8133C77.0134 14.6523 76.5446 14.4034 76.1344 14.0521C75.7389 13.7155 75.4312 13.2763 75.1968 12.764C74.9771 12.2517 74.8599 11.6369 74.8599 10.9343C74.8599 10.1731 74.9771 9.54373 75.2261 9.01677C75.4605 8.48982 75.7974 8.05069 76.2076 7.69939C76.6032 7.37736 77.072 7.12852 77.614 6.96751C78.156 6.80649 78.7127 6.7333 79.2987 6.7333C79.7382 6.7333 80.1777 6.77722 80.6318 6.87968C81.0713 6.98214 81.5108 7.14316 81.965 7.36272V9.47054H81.6427C81.5401 9.38272 81.4229 9.28025 81.2764 9.16315C81.1299 9.04605 80.9688 8.94359 80.8076 8.85576C80.6318 8.7533 80.4268 8.66547 80.1924 8.60692C79.958 8.53373 79.7089 8.50446 79.4306 8.50446C78.786 8.50446 78.3025 8.72402 77.951 9.16315C77.5994 9.60228 77.4236 10.1878 77.4236 10.9343C77.4236 11.7247 77.614 12.3249 77.9802 12.7055C78.3465 13.1007 78.8446 13.291 79.4599 13.291C79.7822 13.291 80.0459 13.2471 80.2803 13.1885C80.5146 13.1153 80.7197 13.0275 80.8955 12.9397C81.0567 12.8372 81.2032 12.7347 81.3204 12.6323C81.4376 12.5298 81.5401 12.4273 81.628 12.3542H81.9503V14.462C81.8038 14.5205 81.6427 14.5937 81.4522 14.6669C81.2618 14.7547 81.0713 14.8133 80.8809 14.8718C80.6318 14.9304 80.4121 14.9889 80.1924 15.0182C79.9873 15.0475 79.7089 15.0768 79.3573 15.0768M90.7987 10.9197C90.7987 12.2224 90.4325 13.2471 89.7146 13.9936C88.9968 14.7401 87.986 15.106 86.6675 15.106C85.349 15.106 84.3529 14.7401 83.6204 13.9936C82.9025 13.2471 82.5363 12.2224 82.5363 10.9197C82.5363 9.61692 82.9025 8.57765 83.6204 7.83113C84.3529 7.08461 85.3637 6.71867 86.6675 6.71867C87.9713 6.71867 88.9968 7.08461 89.7146 7.83113C90.4325 8.57765 90.7987 9.60228 90.7987 10.905M88.235 10.905C88.235 10.4366 88.1911 10.056 88.1178 9.73402C88.0299 9.42663 87.9274 9.17779 87.7955 8.9875C87.649 8.79721 87.4879 8.66547 87.2974 8.57765C87.107 8.50446 86.9019 8.46055 86.6675 8.46055C86.4331 8.46055 86.2427 8.48982 86.0522 8.56301C85.8764 8.6362 85.7006 8.7533 85.5541 8.95822C85.4076 9.13388 85.2904 9.38272 85.2172 9.70474C85.1293 10.0268 85.0854 10.422 85.0854 10.905C85.0854 11.3881 85.1293 11.7833 85.2025 12.076C85.2758 12.3688 85.393 12.603 85.5102 12.7933C85.642 12.9836 85.8178 13.1153 86.0083 13.1885C86.1987 13.2763 86.4331 13.3202 86.6675 13.3202C86.8726 13.3202 87.0777 13.2763 87.2828 13.1885C87.4879 13.1007 87.649 12.9836 87.7809 12.8079C87.9274 12.603 88.0446 12.3688 88.1178 12.076C88.1911 11.7833 88.235 11.4027 88.235 10.8904M95.179 14.9743C94.1682 14.9743 93.421 14.7694 92.9669 14.3595C92.4981 13.9497 92.2637 13.2763 92.2637 12.3395V8.65083H91.3115V6.93823H92.2637V4.68404H94.7541V6.93823H97.1567V8.65083H94.7541V11.4466C94.7541 11.7247 94.7541 11.9589 94.7541 12.1785C94.7541 12.3834 94.7981 12.5737 94.8713 12.7347C94.9299 12.8957 95.0471 13.0275 95.2229 13.1299C95.3841 13.2324 95.6331 13.2763 95.9554 13.2763C96.0873 13.2763 96.2631 13.2471 96.4828 13.1885C96.7025 13.1299 96.849 13.086 96.9369 13.0275H97.142V14.7547C96.8783 14.8279 96.5854 14.8718 96.2777 14.9157C95.9701 14.9597 95.6038 14.9743 95.1643 14.9743M100.658 14.8133H98.1675V6.96751H100.658V14.8572V14.8133ZM100.731 5.7965H98.0943V3.87897H100.731V5.7965ZM106.489 15.0328C105.829 15.0328 105.229 14.945 104.672 14.784C104.13 14.623 103.646 14.3741 103.251 14.0228C102.855 13.6862 102.548 13.247 102.313 12.7347C102.094 12.2224 101.976 11.6076 101.976 10.905C101.976 10.1439 102.094 9.51445 102.328 8.9875C102.577 8.46054 102.899 8.02142 103.31 7.67011C103.705 7.34808 104.174 7.09925 104.716 6.93823C105.258 6.77722 105.815 6.70403 106.401 6.70403C106.84 6.70403 107.28 6.74794 107.719 6.85041C108.159 6.95287 108.613 7.11388 109.052 7.33345V9.44127H108.73C108.627 9.35344 108.51 9.25098 108.364 9.13388C108.217 9.01677 108.056 8.91431 107.895 8.82649C107.719 8.72402 107.514 8.6362 107.28 8.57765C107.045 8.50446 106.796 8.47518 106.518 8.47518C105.888 8.47518 105.39 8.69475 105.038 9.13388C104.687 9.573 104.511 10.1585 104.511 10.905C104.511 11.6955 104.701 12.2956 105.068 12.6762C105.434 13.0714 105.932 13.2617 106.547 13.2617C106.869 13.2617 107.133 13.2178 107.382 13.1592C107.617 13.086 107.822 12.9982 107.997 12.9104C108.173 12.8079 108.305 12.7055 108.422 12.603C108.539 12.5005 108.642 12.3981 108.73 12.3249H109.052V14.4327C108.906 14.4912 108.745 14.5644 108.554 14.6376C108.364 14.7255 108.173 14.784 107.983 14.8426C107.734 14.9011 107.514 14.9597 107.294 14.9889C107.089 15.0182 106.796 15.0475 106.459 15.0475M112.656 15.0475C112.07 15.0475 111.513 14.9889 110.986 14.8572C110.459 14.7254 110.034 14.5791 109.682 14.4181V12.3395H109.887C110.004 12.4273 110.136 12.5298 110.297 12.6323C110.444 12.7347 110.664 12.8518 110.927 12.9689C111.162 13.0714 111.425 13.1739 111.718 13.2471C112.011 13.3349 112.319 13.3642 112.671 13.3642C113.022 13.3642 113.33 13.3056 113.608 13.2031C113.872 13.1007 114.004 12.925 114.004 12.6908C114.004 12.5005 113.945 12.3688 113.813 12.281C113.696 12.1931 113.447 12.0907 113.096 12.0175C112.905 11.9736 112.671 11.915 112.378 11.8711C112.085 11.8126 111.836 11.754 111.601 11.6808C110.971 11.4905 110.503 11.1978 110.195 10.8318C109.873 10.4513 109.726 9.95358 109.726 9.3388C109.726 8.9875 109.814 8.65083 109.975 8.34344C110.136 8.03605 110.385 7.75794 110.693 7.5091C111.015 7.26026 111.411 7.06997 111.88 6.93823C112.348 6.79185 112.876 6.7333 113.462 6.7333C114.048 6.7333 114.531 6.79186 115.015 6.89432C115.483 6.99678 115.879 7.12852 116.201 7.28953V9.28025H116.011C115.923 9.2217 115.791 9.11924 115.601 9.01677C115.425 8.91431 115.234 8.81185 115.059 8.73866C114.839 8.65083 114.619 8.56301 114.355 8.50446C114.092 8.44591 113.828 8.41663 113.564 8.41663C113.198 8.41663 112.905 8.47518 112.656 8.60692C112.407 8.72402 112.275 8.88504 112.275 9.08996C112.275 9.26561 112.334 9.41199 112.466 9.51445C112.583 9.61692 112.861 9.71938 113.271 9.82184C113.491 9.86576 113.725 9.92431 114.018 9.96822C114.297 10.0121 114.561 10.0853 114.824 10.1731C115.396 10.3634 115.835 10.6269 116.128 10.9782C116.421 11.3295 116.568 11.8126 116.568 12.3981C116.568 12.764 116.48 13.1153 116.304 13.452C116.128 13.7886 115.879 14.0668 115.557 14.301C115.205 14.5498 114.81 14.7401 114.355 14.8718C113.887 15.0036 113.33 15.0768 112.7 15.0768M121.036 14.8572L124.625 4.39128H127.525L131.1 14.8572H128.361L127.701 12.7201H124.376L123.717 14.8572H121.05H121.036ZM127.115 10.8318L126.031 7.392L124.947 10.8318H127.115ZM139.509 14.8572H137.004V10.9489C137.004 10.6269 136.989 10.3195 136.96 9.9975C136.931 9.69011 136.887 9.44127 136.813 9.29489C136.725 9.11924 136.608 8.9875 136.432 8.91431C136.271 8.84112 136.052 8.79721 135.788 8.79721C135.583 8.79721 135.378 8.84112 135.173 8.91431C134.968 8.9875 134.748 9.1046 134.499 9.28025V14.8718H132.008V6.96751H134.499V7.84576C134.909 7.5091 135.304 7.24562 135.685 7.04069C136.066 6.85041 136.506 6.74794 136.975 6.74794C137.795 6.74794 138.425 6.99678 138.85 7.5091C139.275 8.02142 139.494 8.7533 139.494 9.71938V14.8572H139.509ZM149.031 10.9197C149.031 12.2224 148.665 13.2471 147.947 13.9936C147.229 14.7401 146.204 15.106 144.9 15.106C143.596 15.106 142.571 14.7401 141.853 13.9936C141.12 13.2471 140.769 12.2224 140.769 10.9197C140.769 9.61692 141.135 8.57765 141.853 7.83113C142.571 7.08461 143.596 6.71867 144.9 6.71867C146.204 6.71867 147.229 7.08461 147.947 7.83113C148.665 8.57765 149.031 9.60228 149.031 10.905M146.468 10.905C146.468 10.4366 146.438 10.056 146.35 9.73402C146.262 9.42663 146.16 9.17779 146.028 8.9875C145.882 8.79721 145.706 8.66547 145.53 8.57765C145.339 8.50446 145.134 8.46055 144.9 8.46055C144.68 8.46055 144.475 8.48982 144.285 8.56301C144.109 8.6362 143.948 8.7533 143.787 8.95822C143.64 9.13388 143.538 9.38272 143.45 9.70474C143.362 10.0268 143.318 10.422 143.318 10.905C143.318 11.3881 143.362 11.7833 143.435 12.076C143.523 12.3688 143.625 12.603 143.757 12.7933C143.889 12.9836 144.05 13.1153 144.255 13.1885C144.461 13.2763 144.68 13.3202 144.915 13.3202C145.12 13.3202 145.325 13.2763 145.53 13.1885C145.735 13.1007 145.896 12.9836 146.013 12.8079C146.16 12.603 146.277 12.3688 146.35 12.076C146.424 11.7833 146.453 11.4027 146.453 10.8904M157.836 14.8133H155.331V10.905C155.331 10.583 155.331 10.2756 155.287 9.95358C155.257 9.64619 155.213 9.39735 155.14 9.25098C155.052 9.07533 154.935 8.94359 154.774 8.8704C154.613 8.79721 154.393 8.7533 154.129 8.7533C153.924 8.7533 153.719 8.79721 153.514 8.8704C153.309 8.94359 153.075 9.06069 152.84 9.23634V14.8279H150.35V6.96751H152.84V7.84576C153.25 7.5091 153.646 7.24562 154.041 7.04069C154.422 6.85041 154.862 6.74794 155.331 6.74794C156.151 6.74794 156.766 6.99678 157.206 7.5091C157.645 8.02142 157.85 8.7533 157.85 9.71938V14.8572L157.836 14.8133ZM167.138 6.92359L163.11 17.7115H160.429L161.645 14.6376L158.715 6.92359H161.337L163.022 11.8857L164.604 6.92359H167.168H167.138ZM177.627 14.8133V10.8758C177.627 10.4805 177.627 10.1585 177.613 9.89503C177.598 9.63156 177.554 9.41199 177.481 9.25098C177.408 9.07533 177.305 8.95822 177.144 8.88504C176.997 8.81185 176.792 8.76793 176.514 8.76793C176.324 8.76793 176.133 8.81185 175.957 8.88504C175.767 8.97286 175.576 9.08996 175.357 9.23634V14.8279H172.852V10.8904C172.852 10.5098 172.852 10.1731 172.822 9.90967C172.808 9.64619 172.764 9.42663 172.69 9.25098C172.617 9.07533 172.5 8.95822 172.354 8.88504C172.207 8.81185 172.002 8.76793 171.724 8.76793C171.518 8.76793 171.328 8.81185 171.123 8.91431C170.932 9.01678 170.742 9.11924 170.552 9.25098V14.8426H168.061V6.96751H170.552V7.84576C170.962 7.5091 171.343 7.24562 171.709 7.04069C172.075 6.85041 172.471 6.74794 172.925 6.74794C173.408 6.74794 173.848 6.86504 174.214 7.08461C174.58 7.31881 174.873 7.65548 175.064 8.10924C175.547 7.67011 175.987 7.33345 176.426 7.08461C176.851 6.85041 177.276 6.7333 177.715 6.7333C178.082 6.7333 178.418 6.79185 178.711 6.90896C179.004 7.02606 179.254 7.20171 179.459 7.43591C179.678 7.68475 179.854 7.99214 179.957 8.34344C180.074 8.69475 180.118 9.14851 180.118 9.71938V14.8572H177.613L177.627 14.8133ZM189.655 10.8758C189.655 12.1785 189.289 13.2031 188.571 13.9497C187.853 14.6962 186.842 15.0621 185.524 15.0621C184.205 15.0621 183.209 14.6962 182.476 13.9497C181.744 13.2031 181.392 12.1785 181.392 10.8758C181.392 9.573 181.759 8.53373 182.476 7.78721C183.194 7.0407 184.205 6.67475 185.524 6.67475C186.842 6.67475 187.853 7.0407 188.571 7.78721C189.289 8.53373 189.655 9.55837 189.655 10.8611M187.091 10.8611C187.091 10.3927 187.047 10.0121 186.974 9.69011C186.901 9.38272 186.783 9.13388 186.652 8.94359C186.505 8.7533 186.344 8.62156 186.154 8.53373C185.963 8.46055 185.758 8.41663 185.524 8.41663C185.304 8.41663 185.099 8.44591 184.923 8.5191C184.747 8.59228 184.586 8.70938 184.425 8.91431C184.278 9.08996 184.176 9.3388 184.088 9.66083C184 9.98286 183.956 10.3781 183.956 10.8611C183.956 11.3442 184 11.7394 184.073 12.0321C184.161 12.3249 184.264 12.5591 184.381 12.7494C184.513 12.9397 184.689 13.0714 184.879 13.1446C185.084 13.2324 185.304 13.2763 185.538 13.2763C185.743 13.2763 185.934 13.2324 186.154 13.1446C186.359 13.0568 186.52 12.9397 186.652 12.764C186.798 12.5591 186.915 12.3249 186.989 12.0321C187.062 11.7394 187.106 11.3588 187.106 10.8465M198.415 14.7694H195.925V13.9057C195.485 14.257 195.09 14.5352 194.738 14.7108C194.372 14.9011 193.947 14.9889 193.449 14.9889C192.658 14.9889 192.043 14.7401 191.589 14.2424C191.134 13.7594 190.915 12.9982 190.915 12.0175V6.87968H193.42V10.8026C193.42 11.2124 193.42 11.5491 193.449 11.7979C193.478 12.0614 193.522 12.281 193.596 12.4566C193.669 12.6176 193.786 12.7347 193.947 12.8226C194.108 12.9104 194.328 12.9543 194.621 12.9543C194.797 12.9543 195.002 12.9104 195.251 12.8226C195.485 12.7347 195.705 12.6176 195.91 12.4859V6.89432H198.401V14.784L198.415 14.7694ZM202.766 14.9889C202.166 14.9889 201.609 14.9304 201.096 14.7986C200.569 14.6669 200.129 14.5205 199.792 14.3595V12.281H199.997C200.115 12.3688 200.247 12.4713 200.408 12.5737C200.554 12.6762 200.774 12.7933 201.038 12.9104C201.272 13.0128 201.536 13.1153 201.829 13.1885C202.122 13.2763 202.444 13.3056 202.781 13.3056C203.132 13.3056 203.44 13.247 203.718 13.1446C203.982 13.0421 204.114 12.8665 204.114 12.6323C204.114 12.442 204.055 12.3102 203.938 12.2224C203.806 12.1346 203.572 12.0321 203.22 11.9589C203.03 11.915 202.796 11.8565 202.503 11.8126C202.21 11.754 201.946 11.6955 201.741 11.6223C201.111 11.432 200.642 11.1392 200.32 10.7733C199.997 10.3927 199.836 9.89503 199.836 9.28025C199.836 8.92895 199.924 8.59228 200.085 8.28489C200.247 7.9775 200.481 7.69939 200.803 7.45055C201.125 7.20171 201.506 7.01142 201.975 6.87968C202.444 6.7333 202.971 6.67475 203.557 6.67475C204.143 6.67475 204.641 6.7333 205.11 6.83577C205.579 6.93823 205.975 7.06997 206.297 7.23098V9.2217H206.092C206.004 9.16315 205.872 9.06069 205.696 8.95822C205.506 8.85576 205.33 8.7533 205.154 8.68011C204.949 8.59228 204.715 8.50446 204.451 8.44591C204.187 8.38736 203.924 8.35808 203.66 8.35808C203.308 8.35808 203.001 8.41663 202.752 8.54837C202.503 8.66547 202.371 8.82649 202.371 9.03141C202.371 9.20706 202.429 9.35344 202.546 9.4559C202.678 9.55837 202.942 9.66083 203.352 9.76329C203.572 9.80721 203.806 9.86576 204.085 9.90967C204.363 9.95358 204.627 10.0268 204.89 10.1146C205.462 10.3049 205.901 10.5684 206.194 10.9197C206.487 11.271 206.634 11.754 206.634 12.3395C206.634 12.7055 206.546 13.0568 206.37 13.3934C206.194 13.7301 205.945 14.0082 205.623 14.2424C205.286 14.4912 204.876 14.6815 204.422 14.8133C203.953 14.945 203.396 15.0182 202.766 15.0182" fill="#1B56A6"/>
<path d="M49.3255 35.5987L52.9 25.1328H55.8153L59.3898 35.5987H56.6503L55.9764 33.4616H52.6509L51.9771 35.5987H49.3108H49.3255ZM55.4051 31.5587L54.321 28.1042L53.2369 31.5587H55.4051ZM67.8573 35.5987H65.3669V32.2174H62.7885V35.5987H60.2981V27.709H62.7885V30.4463H65.3669V27.709H67.8573V35.5987ZM77.4382 31.6612C77.4382 32.9639 77.072 33.9886 76.3541 34.7351C75.6363 35.4816 74.6108 35.8476 73.307 35.8476C72.0032 35.8476 70.9923 35.4816 70.2599 34.7351C69.542 33.9886 69.1758 32.9639 69.1758 31.6612C69.1758 30.3584 69.542 29.3192 70.2599 28.5727C70.9777 27.8261 72.0032 27.4602 73.307 27.4602C74.6108 27.4602 75.6363 27.8261 76.3541 28.5727C77.072 29.3192 77.4382 30.3438 77.4382 31.6466M74.8745 31.6466C74.8745 31.1781 74.8306 30.7829 74.7573 30.4755C74.6841 30.1682 74.5669 29.9193 74.435 29.729C74.2885 29.5387 74.1127 29.3924 73.9369 29.3192C73.7465 29.246 73.5414 29.2021 73.307 29.2021C73.0873 29.2021 72.8822 29.2313 72.7064 29.3045C72.5306 29.3631 72.3548 29.4948 72.2083 29.6851C72.0764 29.8608 71.9592 30.1242 71.8713 30.4316C71.7834 30.7537 71.7395 31.1635 71.7395 31.6319C71.7395 32.1003 71.7834 32.5102 71.8567 32.8029C71.9446 33.0957 72.0471 33.3299 72.1643 33.5055C72.2962 33.6958 72.4573 33.8276 72.6624 33.9007C72.8529 33.9886 73.0873 34.0325 73.3216 34.0325C73.5121 34.0325 73.7172 33.9886 73.9369 33.9007C74.142 33.8129 74.3032 33.6958 74.4204 33.5202C74.5669 33.3152 74.6841 33.081 74.7573 32.7883C74.8306 32.4955 74.8745 32.115 74.8745 31.6026M86.3159 35.5255H83.8255V32.1442H81.2471V35.5255H78.7567V27.6358H81.2471V30.3731H83.8255V27.6358H86.3159V35.5255ZM95.8236 35.5255H93.3771V30.7244L90.3153 35.5255H88.2204V27.6358H90.6815L90.7108 31.749L93.4796 27.6358H95.8236V35.5255ZM106.855 35.5255H104.408V30.578L102.797 33.8715H101.742L100.116 30.578V35.5255H97.728V27.6358H100.438L102.284 31.2952L104.13 27.6358H106.84V35.5255H106.855ZM116.318 35.5255H113.828V32.1442H111.25V35.5255H108.759V27.6358H111.25V30.3731H113.828V27.6358H116.318V35.5255ZM125.343 32.8761C125.343 33.286 125.269 33.6519 125.094 33.9886C124.932 34.3252 124.727 34.6034 124.464 34.8229C124.141 35.0864 123.804 35.262 123.468 35.3645C123.131 35.467 122.662 35.5255 122.076 35.5255H118.238V27.6358H120.728V30.2999H122.09C122.662 30.2999 123.131 30.3438 123.482 30.417C123.834 30.5048 124.171 30.6512 124.493 30.8854C124.771 31.0903 124.991 31.3684 125.138 31.7197C125.284 32.071 125.357 32.4516 125.357 32.8761M122.618 33.5641C122.706 33.4616 122.75 33.3592 122.779 33.2421C122.808 33.125 122.823 33.0225 122.823 32.9054C122.823 32.5687 122.72 32.3199 122.515 32.1589C122.31 31.9979 122.017 31.91 121.636 31.91H120.728V33.9447H121.636C121.9 33.9447 122.105 33.9154 122.266 33.8422C122.427 33.769 122.545 33.6812 122.618 33.5787M128.668 35.5402H126.178V27.6505H128.668V35.5402ZM134.675 35.7451C133.166 35.7451 132.008 35.3938 131.203 34.6765C130.397 33.9593 130.001 32.9493 130.001 31.6319C130.001 30.3145 130.382 29.3192 131.129 28.5434C131.876 27.7676 132.931 27.387 134.279 27.387C135.51 27.387 136.432 27.709 137.048 28.3677C137.663 29.0264 137.971 29.9486 137.971 31.1635V32.0564H132.506C132.536 32.4223 132.609 32.7297 132.741 32.9639C132.873 33.2128 133.048 33.4031 133.268 33.5494C133.473 33.6958 133.737 33.7983 134.015 33.8568C134.294 33.9154 134.616 33.9593 134.953 33.9593C135.246 33.9593 135.524 33.93 135.803 33.8568C136.081 33.7983 136.345 33.7105 136.579 33.608C136.784 33.5202 136.975 33.4177 137.15 33.3152C137.326 33.2128 137.458 33.125 137.575 33.0371H137.839V35.0718C137.634 35.1449 137.443 35.2181 137.282 35.2913C137.121 35.3645 136.887 35.4231 136.594 35.4962C136.315 35.5694 136.037 35.628 135.759 35.6573C135.466 35.7012 135.129 35.7158 134.704 35.7158M135.524 30.5487C135.51 30.0218 135.392 29.6266 135.158 29.3631C134.924 29.085 134.572 28.9532 134.103 28.9532C133.634 28.9532 133.239 29.0996 132.961 29.3777C132.682 29.6558 132.536 30.0511 132.506 30.5487H135.524ZM152.635 35.5109H149.969V30.8708H146.35V35.5109H143.684V25.045H146.35V28.88H149.969V25.045H152.635V35.5109ZM159.096 33.447V31.7929C158.671 31.8368 158.334 31.8661 158.07 31.8954C157.806 31.9247 157.557 31.9832 157.294 32.071C157.074 32.1442 156.913 32.2613 156.796 32.4077C156.664 32.5541 156.605 32.759 156.605 33.0225C156.605 33.3884 156.708 33.6373 156.913 33.7836C157.118 33.9154 157.411 33.9886 157.806 33.9886C158.026 33.9886 158.246 33.9447 158.48 33.8422C158.715 33.7397 158.92 33.608 159.096 33.4323M159.096 34.6473C158.92 34.7936 158.773 34.9107 158.641 35.0278C158.51 35.1303 158.334 35.2474 158.099 35.3645C157.88 35.467 157.66 35.5548 157.455 35.6133C157.25 35.6719 156.942 35.7012 156.561 35.7012C155.858 35.7012 155.272 35.467 154.803 34.9986C154.334 34.5302 154.1 33.9447 154.1 33.2274C154.1 32.6419 154.217 32.1589 154.452 31.8076C154.686 31.4416 155.038 31.1635 155.477 30.9586C155.931 30.739 156.473 30.5926 157.089 30.5048C157.718 30.417 158.392 30.3584 159.11 30.2999V30.256C159.11 29.8168 158.949 29.5095 158.612 29.3484C158.29 29.1874 157.806 29.0996 157.147 29.0996C156.854 29.0996 156.517 29.1582 156.122 29.2606C155.726 29.3631 155.345 29.5095 154.964 29.6705H154.745V27.7676C154.994 27.6944 155.389 27.6212 155.946 27.5187C156.503 27.4309 157.059 27.3724 157.616 27.3724C158.993 27.3724 160.004 27.5919 160.634 28.0603C161.264 28.5141 161.571 29.2021 161.571 30.1242V35.4962H159.096V34.6619V34.6473ZM171.255 31.427C171.255 32.6858 170.932 33.6958 170.273 34.4716C169.629 35.2474 168.823 35.628 167.885 35.628C167.49 35.628 167.138 35.5841 166.845 35.4962C166.552 35.4084 166.245 35.262 165.908 35.0718V38.3652H163.417V27.5773H165.908V28.397C166.274 28.0896 166.64 27.8408 167.021 27.6505C167.402 27.4602 167.841 27.3577 168.339 27.3577C169.262 27.3577 169.98 27.7237 170.493 28.4409C171.006 29.1728 171.255 30.1535 171.255 31.4123M168.706 31.4709C168.706 30.7097 168.589 30.1389 168.339 29.8022C168.105 29.4509 167.724 29.2899 167.226 29.2899C167.006 29.2899 166.787 29.3192 166.567 29.3924C166.347 29.4655 166.127 29.568 165.922 29.7144V33.6812C166.054 33.7397 166.201 33.7836 166.362 33.7983C166.523 33.8276 166.713 33.8276 166.933 33.8276C167.548 33.8276 167.988 33.6373 168.281 33.2421C168.574 32.8468 168.72 32.2613 168.72 31.4709M180.499 35.4816H177.627L175.738 32.3492H175.093V35.4816H172.603V27.5919H175.093V30.7537C175.445 30.7537 175.708 30.6951 175.884 30.6073C176.06 30.5048 176.25 30.256 176.455 29.8461C176.514 29.6997 176.602 29.5534 176.675 29.3777C176.748 29.2021 176.822 29.0557 176.88 28.924C177.129 28.397 177.437 28.0457 177.818 27.8554C178.184 27.6651 178.638 27.5627 179.166 27.5627C179.341 27.5627 179.517 27.5627 179.693 27.5627C179.854 27.5627 179.971 27.5627 180.045 27.5627V29.6705H179.561C179.415 29.6705 179.268 29.6997 179.151 29.7583C179.034 29.8168 178.931 29.89 178.843 29.9779C178.755 30.0657 178.682 30.1682 178.638 30.256C178.594 30.3438 178.55 30.4463 178.506 30.5341C178.389 30.7829 178.316 30.9732 178.257 31.0757C178.199 31.1781 178.111 31.2953 177.979 31.3977L180.513 35.467L180.499 35.4816ZM189.069 31.5441C189.069 32.8468 188.703 33.8715 187.985 34.618C187.267 35.3645 186.241 35.7305 184.938 35.7305C183.634 35.7305 182.623 35.3645 181.89 34.618C181.173 33.8715 180.806 32.8468 180.806 31.5441C180.806 30.2413 181.173 29.2021 181.89 28.4556C182.608 27.709 183.619 27.3431 184.938 27.3431C186.256 27.3431 187.267 27.709 187.985 28.4556C188.703 29.2021 189.069 30.2267 189.069 31.5295M186.505 31.5295C186.505 31.061 186.461 30.6658 186.388 30.3584C186.3 30.0511 186.197 29.8022 186.066 29.6119C185.919 29.4216 185.743 29.2753 185.567 29.2021C185.392 29.1289 185.172 29.085 184.938 29.085C184.718 29.085 184.513 29.1142 184.337 29.1874C184.161 29.246 183.985 29.3777 183.839 29.568C183.707 29.7437 183.59 30.0071 183.502 30.3145C183.414 30.6366 183.37 31.0464 183.37 31.5148C183.37 31.9832 183.414 32.3931 183.487 32.6858C183.56 32.9786 183.663 33.2128 183.795 33.3884C183.927 33.5787 184.088 33.7105 184.293 33.7836C184.498 33.8715 184.718 33.9154 184.952 33.9154C185.143 33.9154 185.362 33.8715 185.567 33.7836C185.773 33.6958 185.934 33.5787 186.066 33.4031C186.212 33.1981 186.329 32.9639 186.403 32.6712C186.476 32.3784 186.52 31.9979 186.52 31.4855M199.529 35.4084H197.082V30.4609L195.456 33.7544H194.401L192.775 30.4609V35.4084H190.387V27.5187H193.097L194.943 31.1781L196.789 27.5187H199.499V35.4084H199.529ZM205.843 33.3445V31.6905C205.418 31.7344 205.081 31.7637 204.817 31.7929C204.553 31.8222 204.304 31.8808 204.055 31.9686C203.836 32.0418 203.674 32.1589 203.543 32.3052C203.425 32.4516 203.352 32.6565 203.352 32.92C203.352 33.286 203.455 33.5348 203.66 33.6812C203.865 33.8129 204.158 33.8861 204.553 33.8861C204.773 33.8861 204.993 33.8422 205.227 33.7397C205.462 33.6373 205.667 33.5055 205.843 33.3299M205.843 34.5448C205.667 34.6912 205.52 34.8083 205.389 34.9254C205.257 35.0278 205.066 35.1449 204.846 35.262C204.627 35.3645 204.407 35.4523 204.202 35.5109C203.982 35.5694 203.689 35.5987 203.308 35.5987C202.605 35.5987 202.019 35.3645 201.55 34.8961C201.082 34.4277 200.847 33.8422 200.847 33.125C200.847 32.5394 200.964 32.0564 201.199 31.7051C201.433 31.3392 201.785 31.061 202.224 30.8561C202.678 30.6366 203.22 30.4902 203.85 30.4024C204.48 30.3145 205.154 30.256 205.872 30.1974V30.1535C205.872 29.7144 205.711 29.407 205.389 29.246C205.066 29.085 204.568 28.9971 203.924 28.9971C203.631 28.9971 203.279 29.0557 202.883 29.1582C202.488 29.2606 202.107 29.407 201.726 29.568H201.506V27.6651C201.755 27.5919 202.151 27.5187 202.708 27.4163C203.264 27.3285 203.821 27.2699 204.378 27.2699C205.755 27.2699 206.766 27.4895 207.396 27.9579C208.025 28.4116 208.333 29.0996 208.333 30.0218V35.3938H205.857V34.5594L205.843 34.5448ZM217.724 35.3791H215.233V31.9979H212.655V35.3791H210.164V27.4895H212.655V30.2267H215.233V27.4895H217.724V35.3791ZM226.748 32.7297C226.748 33.1396 226.674 33.5055 226.513 33.8422C226.352 34.1789 226.147 34.457 225.883 34.6765C225.561 34.94 225.224 35.1157 224.887 35.2181C224.55 35.3206 224.082 35.3791 223.496 35.3791H219.643V27.4895H222.133V30.1535H223.496C224.067 30.1535 224.536 30.1974 224.887 30.2706C225.239 30.3584 225.576 30.5048 225.898 30.739C226.176 30.9439 226.382 31.2221 226.543 31.5734C226.689 31.9247 226.762 32.3052 226.762 32.7297M224.023 33.4177C224.111 33.3152 224.155 33.2128 224.184 33.0957C224.213 32.9786 224.228 32.8761 224.228 32.759C224.228 32.4223 224.125 32.1735 223.92 32.0125C223.715 31.8515 223.422 31.7637 223.041 31.7637H222.133V33.7983H223.041C223.305 33.7983 223.51 33.769 223.671 33.6958C223.832 33.6226 223.95 33.5348 224.023 33.4323M230.073 35.3938H227.583V27.5041H230.073V35.3938Z" fill="#1B56A6"/>
<path d="M212.567 14.6962C212.567 15.2378 212.376 15.6915 211.996 16.0721C211.615 16.4527 211.146 16.643 210.604 16.643C210.062 16.643 209.593 16.4527 209.212 16.0721C208.831 15.6915 208.626 15.2231 208.626 14.6962C208.626 14.1692 208.817 13.7008 209.212 13.3202C209.593 12.9397 210.062 12.7494 210.604 12.7494C211.146 12.7494 211.615 12.9397 211.996 13.3202C212.376 13.7008 212.567 14.1546 212.567 14.6962ZM212.127 14.6962C212.127 14.2717 211.981 13.9204 211.673 13.613C211.366 13.3056 211.014 13.1592 210.589 13.1592C210.164 13.1592 209.813 13.3056 209.505 13.613C209.212 13.9057 209.051 14.2717 209.051 14.6962C209.051 15.1207 209.197 15.472 209.505 15.7794C209.813 16.0868 210.164 16.2331 210.589 16.2331C211.014 16.2331 211.38 16.0868 211.673 15.7794C211.966 15.4866 212.127 15.1207 212.127 14.6962ZM211.659 15.6184H211.073L210.501 14.9011H210.311V15.6184H209.842V13.6715H210.56C210.692 13.6715 210.794 13.6715 210.882 13.6862C210.955 13.6862 211.043 13.7301 211.117 13.774C211.204 13.8326 211.263 13.8765 211.307 13.9497C211.351 14.0228 211.366 14.1107 211.366 14.2131C211.366 14.3595 211.322 14.4766 211.248 14.5644C211.175 14.6523 211.073 14.7255 210.941 14.7694L211.659 15.6037V15.6184ZM210.853 14.257C210.853 14.257 210.853 14.1839 210.838 14.1399C210.824 14.1107 210.794 14.0814 210.75 14.0668C210.721 14.0521 210.677 14.0375 210.633 14.0228C210.589 14.0228 210.531 14.0228 210.457 14.0228H210.311V14.5644H210.428C210.428 14.5644 210.56 14.5644 210.618 14.5498C210.677 14.5498 210.721 14.5205 210.75 14.4913C210.78 14.462 210.809 14.4327 210.824 14.4034C210.838 14.3595 210.838 14.3156 210.838 14.257" fill="#1B56A6"/>
</g>
<defs>
<clipPath id="clip0_48_2">
<rect width="230" height="41" fill="white"/>
</clipPath>
</defs>
</svg>
