<?xml version="1.0" standalone="no"?>
<!DOCTYPE svg PUBLIC "-//W3C//DTD SVG 20010904//EN"
 "http://www.w3.org/TR/2001/REC-SVG-20010904/DTD/svg10.dtd">
<svg version="1.0" xmlns="http://www.w3.org/2000/svg"
 width="578.000000pt" height="578.000000pt" viewBox="0 0 578.000000 578.000000"
 preserveAspectRatio="xMidYMid meet">
<metadata>
Created by potrace 1.14, written by Peter Selinger 2001-2017
</metadata>
<g transform="translate(0.000000,578.000000) scale(0.100000,-0.100000)"
fill="#000000" stroke="none">
<path d="M2699 5776 c-2 -2 -41 -7 -85 -10 -45 -4 -93 -9 -105 -11 -13 -2 -46
-7 -74 -11 -27 -4 -54 -8 -60 -9 -5 -2 -37 -8 -70 -14 -329 -66 -688 -213
-975 -398 -623 -404 -1057 -1008 -1245 -1733 -13 -50 -37 -171 -41 -205 -3
-22 -9 -58 -14 -80 -34 -155 -34 -614 0 -830 5 -33 12 -78 16 -100 3 -22 13
-69 21 -105 8 -36 16 -72 18 -81 2 -9 13 -49 25 -90 165 -566 484 -1055 930
-1427 194 -161 463 -331 650 -411 30 -13 73 -31 95 -41 111 -48 354 -126 465
-149 30 -6 66 -14 80 -16 49 -10 216 -35 280 -42 87 -10 489 -9 565 1 261 33
368 54 560 113 192 58 408 150 570 243 22 13 49 28 60 34 85 46 317 213 410
295 97 85 298 295 375 391 46 58 116 155 156 215 67 102 199 341 223 403 5 15
28 72 51 127 41 101 123 368 134 439 4 21 8 41 10 45 2 3 7 29 10 56 4 28 11
77 16 110 21 128 27 248 25 460 -2 121 -6 229 -8 241 -3 11 -8 45 -11 75 -7
59 -11 88 -27 165 -5 28 -12 64 -15 80 -8 46 -53 212 -81 294 -206 616 -610
1142 -1158 1507 -132 87 -347 201 -490 258 -38 15 -79 31 -90 36 -39 16 -171
57 -265 82 -124 33 -236 55 -365 72 -28 3 -64 8 -80 11 -34 6 -481 14 -486 10z"/>
<path d="M5150 741 c-138 -43 -210 -183 -168 -323 6 -22 29 -59 49 -82 152
-172 433 -66 433 164 0 101 -53 184 -145 227 -43 21 -126 27 -169 14z m121
-31 c96 -23 170 -122 163 -220 -11 -167 -185 -260 -329 -175 -144 84 -137 303
12 377 57 28 93 32 154 18z"/>
<path d="M5120 506 c0 -122 2 -134 18 -131 9 2 20 4 24 4 4 1 7 16 6 34 -2 59
1 67 25 67 17 0 30 -13 51 -53 18 -32 36 -54 47 -54 30 -3 29 10 0 61 l-28 48
23 25 c31 34 31 77 -1 108 -21 22 -33 25 -95 25 l-70 0 0 -134z m130 89 c14
-9 18 -44 6 -59 -14 -19 -85 -29 -87 -13 -5 42 -3 73 4 78 9 7 63 2 77 -6z"/>
</g>
</svg>
